<?xml version="1.0" standalone="no"?>
<!DOCTYPE svg PUBLIC "-//W3C//DTD SVG 20010904//EN"
 "http://www.w3.org/TR/2001/REC-SVG-20010904/DTD/svg10.dtd">
<svg version="1.0" xmlns="http://www.w3.org/2000/svg"
 width="512.000000pt" height="512.000000pt" viewBox="0 0 512.000000 512.000000"
 preserveAspectRatio="xMidYMid meet">

<g transform="translate(0.000000,512.000000) scale(0.100000,-0.100000)"
fill="#000000" stroke="none">
<path d="M619 4797 c-96 -36 -135 -76 -224 -231 -70 -120 -85 -163 -85 -236 0
-99 49 -195 130 -252 47 -34 1805 -1030 1850 -1049 19 -8 64 -14 100 -13 82 1
155 34 225 103 l51 49 234 -112 c129 -62 313 -154 409 -206 l173 -93 -28 -17
c-16 -9 -693 -360 -1504 -780 -811 -419 -1496 -776 -1521 -792 -65 -40 -145
-128 -174 -190 -52 -112 -58 -260 -15 -367 93 -236 397 -352 619 -236 32 16
3286 1893 3356 1935 l30 18 98 -89 c177 -159 299 -227 429 -237 80 -6 116 7
158 54 55 63 49 147 -16 203 -19 17 -47 33 -62 37 -78 18 -102 27 -161 61 -35
21 -97 70 -138 108 l-73 70 21 60 c16 46 20 76 17 130 -6 88 -33 150 -95 216
-58 62 -121 95 -211 111 -68 11 -96 8 -208 -27 -17 -5 -40 10 -110 72 -103 90
-298 245 -365 291 -139 94 -357 196 -729 340 -141 55 -280 112 -310 127 -30
15 -401 224 -825 465 -423 240 -790 447 -815 460 -56 29 -176 37 -231 17z
m921 -642 c432 -247 820 -466 863 -487 43 -21 185 -79 315 -128 350 -131 546
-222 697 -323 70 -48 230 -175 306 -245 l53 -49 -41 -22 c-23 -11 -46 -21 -52
-21 -5 0 -74 36 -152 81 -280 158 -862 448 -932 464 -19 4 -29 -7 -73 -87 -59
-109 -95 -137 -148 -121 -18 6 -437 239 -931 519 -691 392 -902 516 -917 539
-27 43 -19 78 47 192 69 122 95 147 145 140 23 -3 314 -163 820 -452z m2661
-1306 c116 -35 149 -178 61 -261 -30 -28 -3348 -1956 -3489 -2027 -57 -28
-113 -35 -172 -21 -136 32 -214 163 -181 301 11 44 23 63 69 108 51 49 207
132 1821 969 971 504 1781 921 1800 928 44 16 45 16 91 3z"/>
<path d="M4027 2735 c-46 -47 -39 -122 16 -156 79 -49 180 29 147 115 -25 68
-113 90 -163 41z"/>
<path d="M649 891 c-63 -64 -20 -171 68 -171 94 0 134 114 61 175 -42 35 -91
34 -129 -4z"/>
</g>
</svg>
